%TF.GenerationSoftware,KiCad,Pcbnew,7.0.9-7.0.9~ubuntu22.04.1*%
%TF.CreationDate,2023-11-20T10:22:54+01:00*%
%TF.ProjectId,blank,626c616e-6b2e-46b6-9963-61645f706362,rev?*%
%TF.SameCoordinates,Original*%
%TF.FileFunction,Copper,L1,Top*%
%TF.FilePolarity,Positive*%
%FSLAX46Y46*%
G04 Gerber Fmt 4.6, Leading zero omitted, Abs format (unit mm)*
G04 Created by KiCad (PCBNEW 7.0.9-7.0.9~ubuntu22.04.1) date 2023-11-20 10:22:54*
%MOMM*%
%LPD*%
G01*
G04 APERTURE LIST*
%TA.AperFunction,WasherPad*%
%ADD10C,6.400000*%
%TD*%
%TA.AperFunction,WasherPad*%
%ADD11O,5.400000X3.400000*%
%TD*%
%TA.AperFunction,WasherPad*%
%ADD12C,5.600000*%
%TD*%
%TA.AperFunction,WasherPad*%
%ADD13C,7.400000*%
%TD*%
%TA.AperFunction,Profile*%
%ADD14C,0.120000*%
%TD*%
G04 APERTURE END LIST*
D10*
%TO.P,REF\u002A\u002A,*%
%TO.N,*%
X33694999Y-111656952D03*
X33694999Y-125406904D03*
X33694999Y-138995001D03*
D11*
X34045000Y-30095000D03*
D12*
X35194995Y-86383225D03*
D13*
X37720500Y-49999289D03*
X37720500Y-69122311D03*
D10*
X45861694Y-111656903D03*
X45861694Y-125406904D03*
X45861694Y-138995001D03*
X52047894Y-89051597D03*
X58028297Y-111656903D03*
X58028297Y-125406904D03*
X58028297Y-138995001D03*
D13*
X66194996Y-49999289D03*
X66194996Y-69122311D03*
D10*
X68700087Y-86383206D03*
D11*
X69645000Y-152595000D03*
D10*
X70195000Y-111656903D03*
X70195000Y-125406904D03*
X70195000Y-138995001D03*
%TD*%
%TA.AperFunction,NonConductor*%
G36*
X77287539Y-27115185D02*
G01*
X77333294Y-27167989D01*
X77344500Y-27219500D01*
X77344500Y-155470500D01*
X77324815Y-155537539D01*
X77272011Y-155583294D01*
X77220500Y-155594500D01*
X26723945Y-155594500D01*
X26656906Y-155574815D01*
X26611151Y-155522011D01*
X26599945Y-155470553D01*
X26598746Y-152668965D01*
X66432793Y-152668965D01*
X66462389Y-152963158D01*
X66462390Y-152963161D01*
X66530934Y-153250784D01*
X66530936Y-153250793D01*
X66637203Y-153526708D01*
X66637207Y-153526717D01*
X66779306Y-153786015D01*
X66954699Y-154024060D01*
X66954706Y-154024067D01*
X67160255Y-154236604D01*
X67160262Y-154236610D01*
X67392304Y-154419851D01*
X67392308Y-154419854D01*
X67646715Y-154570540D01*
X67918936Y-154685971D01*
X68204113Y-154764089D01*
X68497158Y-154803500D01*
X68497163Y-154803500D01*
X70718849Y-154803500D01*
X70859593Y-154794078D01*
X70940023Y-154788694D01*
X71229781Y-154729798D01*
X71509104Y-154632806D01*
X71773007Y-154499450D01*
X72016781Y-154332109D01*
X72236075Y-154133769D01*
X72426977Y-153907970D01*
X72586079Y-153658740D01*
X72710542Y-153390529D01*
X72798146Y-153108121D01*
X72847327Y-152816556D01*
X72857207Y-152521038D01*
X72827610Y-152226839D01*
X72759065Y-151939211D01*
X72652794Y-151663285D01*
X72510694Y-151403985D01*
X72335301Y-151165940D01*
X72129744Y-150953395D01*
X72129737Y-150953389D01*
X71897695Y-150770148D01*
X71763301Y-150690546D01*
X71643285Y-150619460D01*
X71371064Y-150504029D01*
X71371060Y-150504028D01*
X71371058Y-150504027D01*
X71371056Y-150504026D01*
X71085889Y-150425911D01*
X71002159Y-150414650D01*
X70792842Y-150386500D01*
X68571158Y-150386500D01*
X68571151Y-150386500D01*
X68349980Y-150401305D01*
X68349970Y-150401307D01*
X68060216Y-150460202D01*
X67780897Y-150557193D01*
X67780892Y-150557195D01*
X67516998Y-150690546D01*
X67273217Y-150857891D01*
X67053926Y-151056229D01*
X66863020Y-151282033D01*
X66703920Y-151531260D01*
X66703919Y-151531262D01*
X66642652Y-151663291D01*
X66579458Y-151799471D01*
X66546877Y-151904500D01*
X66491854Y-152081876D01*
X66442673Y-152373444D01*
X66432793Y-152668965D01*
X26598746Y-152668965D01*
X26592894Y-138995001D01*
X29981410Y-138995001D01*
X30001753Y-139383178D01*
X30062560Y-139767094D01*
X30062560Y-139767096D01*
X30163168Y-140142570D01*
X30302468Y-140505457D01*
X30478939Y-140851800D01*
X30690636Y-141177786D01*
X30690640Y-141177791D01*
X30690642Y-141177794D01*
X30935265Y-141479877D01*
X31210123Y-141754735D01*
X31512206Y-141999358D01*
X31512210Y-141999360D01*
X31512213Y-141999363D01*
X31838199Y-142211060D01*
X31838204Y-142211063D01*
X32184546Y-142387533D01*
X32547437Y-142526834D01*
X32922900Y-142627439D01*
X33306823Y-142688247D01*
X33673529Y-142707464D01*
X33694998Y-142708590D01*
X33694999Y-142708590D01*
X33695000Y-142708590D01*
X33715343Y-142707523D01*
X34083175Y-142688247D01*
X34467098Y-142627439D01*
X34842561Y-142526834D01*
X35205452Y-142387533D01*
X35551794Y-142211063D01*
X35877792Y-141999358D01*
X36179875Y-141754735D01*
X36454733Y-141479877D01*
X36699356Y-141177794D01*
X36911061Y-140851796D01*
X37087531Y-140505454D01*
X37226832Y-140142563D01*
X37327437Y-139767100D01*
X37388245Y-139383177D01*
X37408588Y-138995001D01*
X42148105Y-138995001D01*
X42168448Y-139383178D01*
X42229255Y-139767094D01*
X42229255Y-139767096D01*
X42329863Y-140142570D01*
X42469163Y-140505457D01*
X42645634Y-140851800D01*
X42857331Y-141177786D01*
X42857335Y-141177791D01*
X42857337Y-141177794D01*
X43101960Y-141479877D01*
X43376818Y-141754735D01*
X43678901Y-141999358D01*
X43678905Y-141999360D01*
X43678908Y-141999363D01*
X44004894Y-142211060D01*
X44004899Y-142211063D01*
X44351241Y-142387533D01*
X44714132Y-142526834D01*
X45089595Y-142627439D01*
X45473518Y-142688247D01*
X45840224Y-142707464D01*
X45861693Y-142708590D01*
X45861694Y-142708590D01*
X45861695Y-142708590D01*
X45882038Y-142707523D01*
X46249870Y-142688247D01*
X46633793Y-142627439D01*
X47009256Y-142526834D01*
X47372147Y-142387533D01*
X47718489Y-142211063D01*
X48044487Y-141999358D01*
X48346570Y-141754735D01*
X48621428Y-141479877D01*
X48866051Y-141177794D01*
X49077756Y-140851796D01*
X49254226Y-140505454D01*
X49393527Y-140142563D01*
X49494132Y-139767100D01*
X49554940Y-139383177D01*
X49575283Y-138995001D01*
X54314708Y-138995001D01*
X54335051Y-139383178D01*
X54395858Y-139767094D01*
X54395858Y-139767096D01*
X54496466Y-140142570D01*
X54635766Y-140505457D01*
X54812237Y-140851800D01*
X55023934Y-141177786D01*
X55023938Y-141177791D01*
X55023940Y-141177794D01*
X55268563Y-141479877D01*
X55543421Y-141754735D01*
X55845504Y-141999358D01*
X55845508Y-141999360D01*
X55845511Y-141999363D01*
X56171497Y-142211060D01*
X56171502Y-142211063D01*
X56517844Y-142387533D01*
X56880735Y-142526834D01*
X57256198Y-142627439D01*
X57640121Y-142688247D01*
X58006827Y-142707464D01*
X58028296Y-142708590D01*
X58028297Y-142708590D01*
X58028298Y-142708590D01*
X58048641Y-142707523D01*
X58416473Y-142688247D01*
X58800396Y-142627439D01*
X59175859Y-142526834D01*
X59538750Y-142387533D01*
X59885092Y-142211063D01*
X60211090Y-141999358D01*
X60513173Y-141754735D01*
X60788031Y-141479877D01*
X61032654Y-141177794D01*
X61244359Y-140851796D01*
X61420829Y-140505454D01*
X61560130Y-140142563D01*
X61660735Y-139767100D01*
X61721543Y-139383177D01*
X61741886Y-138995001D01*
X66481411Y-138995001D01*
X66501754Y-139383178D01*
X66562561Y-139767094D01*
X66562561Y-139767096D01*
X66663169Y-140142570D01*
X66802469Y-140505457D01*
X66978940Y-140851800D01*
X67190637Y-141177786D01*
X67190641Y-141177791D01*
X67190643Y-141177794D01*
X67435266Y-141479877D01*
X67710124Y-141754735D01*
X68012207Y-141999358D01*
X68012211Y-141999360D01*
X68012214Y-141999363D01*
X68338200Y-142211060D01*
X68338205Y-142211063D01*
X68684547Y-142387533D01*
X69047438Y-142526834D01*
X69422901Y-142627439D01*
X69806824Y-142688247D01*
X70173530Y-142707464D01*
X70194999Y-142708590D01*
X70195000Y-142708590D01*
X70195001Y-142708590D01*
X70215344Y-142707523D01*
X70583176Y-142688247D01*
X70967099Y-142627439D01*
X71342562Y-142526834D01*
X71705453Y-142387533D01*
X72051795Y-142211063D01*
X72377793Y-141999358D01*
X72679876Y-141754735D01*
X72954734Y-141479877D01*
X73199357Y-141177794D01*
X73411062Y-140851796D01*
X73587532Y-140505454D01*
X73726833Y-140142563D01*
X73827438Y-139767100D01*
X73888246Y-139383177D01*
X73908589Y-138995001D01*
X73888246Y-138606825D01*
X73827438Y-138222902D01*
X73726833Y-137847439D01*
X73587532Y-137484548D01*
X73411062Y-137138207D01*
X73199357Y-136812208D01*
X72954734Y-136510125D01*
X72679876Y-136235267D01*
X72377793Y-135990644D01*
X72377790Y-135990642D01*
X72377785Y-135990638D01*
X72051799Y-135778941D01*
X71705456Y-135602470D01*
X71342569Y-135463170D01*
X71342562Y-135463168D01*
X70967099Y-135362563D01*
X70967095Y-135362562D01*
X70967094Y-135362562D01*
X70583177Y-135301755D01*
X70195001Y-135281412D01*
X70194999Y-135281412D01*
X69806822Y-135301755D01*
X69422906Y-135362562D01*
X69422904Y-135362562D01*
X69047430Y-135463170D01*
X68684543Y-135602470D01*
X68338201Y-135778941D01*
X68012214Y-135990638D01*
X67710128Y-136235263D01*
X67710120Y-136235270D01*
X67435269Y-136510121D01*
X67435262Y-136510129D01*
X67190637Y-136812215D01*
X66978940Y-137138202D01*
X66802469Y-137484544D01*
X66663169Y-137847431D01*
X66562561Y-138222905D01*
X66562561Y-138222907D01*
X66501754Y-138606823D01*
X66481411Y-138995000D01*
X66481411Y-138995001D01*
X61741886Y-138995001D01*
X61721543Y-138606825D01*
X61660735Y-138222902D01*
X61560130Y-137847439D01*
X61420829Y-137484548D01*
X61244359Y-137138207D01*
X61032654Y-136812208D01*
X60788031Y-136510125D01*
X60513173Y-136235267D01*
X60211090Y-135990644D01*
X60211087Y-135990642D01*
X60211082Y-135990638D01*
X59885096Y-135778941D01*
X59538753Y-135602470D01*
X59175866Y-135463170D01*
X59175859Y-135463168D01*
X58800396Y-135362563D01*
X58800392Y-135362562D01*
X58800391Y-135362562D01*
X58416474Y-135301755D01*
X58028298Y-135281412D01*
X58028296Y-135281412D01*
X57640119Y-135301755D01*
X57256203Y-135362562D01*
X57256201Y-135362562D01*
X56880727Y-135463170D01*
X56517840Y-135602470D01*
X56171498Y-135778941D01*
X55845511Y-135990638D01*
X55543425Y-136235263D01*
X55543417Y-136235270D01*
X55268566Y-136510121D01*
X55268559Y-136510129D01*
X55023934Y-136812215D01*
X54812237Y-137138202D01*
X54635766Y-137484544D01*
X54496466Y-137847431D01*
X54395858Y-138222905D01*
X54395858Y-138222907D01*
X54335051Y-138606823D01*
X54314708Y-138995000D01*
X54314708Y-138995001D01*
X49575283Y-138995001D01*
X49554940Y-138606825D01*
X49494132Y-138222902D01*
X49393527Y-137847439D01*
X49254226Y-137484548D01*
X49077756Y-137138207D01*
X48866051Y-136812208D01*
X48621428Y-136510125D01*
X48346570Y-136235267D01*
X48044487Y-135990644D01*
X48044484Y-135990642D01*
X48044479Y-135990638D01*
X47718493Y-135778941D01*
X47372150Y-135602470D01*
X47009263Y-135463170D01*
X47009256Y-135463168D01*
X46633793Y-135362563D01*
X46633789Y-135362562D01*
X46633788Y-135362562D01*
X46249871Y-135301755D01*
X45861695Y-135281412D01*
X45861693Y-135281412D01*
X45473516Y-135301755D01*
X45089600Y-135362562D01*
X45089598Y-135362562D01*
X44714124Y-135463170D01*
X44351237Y-135602470D01*
X44004895Y-135778941D01*
X43678908Y-135990638D01*
X43376822Y-136235263D01*
X43376814Y-136235270D01*
X43101963Y-136510121D01*
X43101956Y-136510129D01*
X42857331Y-136812215D01*
X42645634Y-137138202D01*
X42469163Y-137484544D01*
X42329863Y-137847431D01*
X42229255Y-138222905D01*
X42229255Y-138222907D01*
X42168448Y-138606823D01*
X42148105Y-138995000D01*
X42148105Y-138995001D01*
X37408588Y-138995001D01*
X37388245Y-138606825D01*
X37327437Y-138222902D01*
X37226832Y-137847439D01*
X37087531Y-137484548D01*
X36911061Y-137138207D01*
X36699356Y-136812208D01*
X36454733Y-136510125D01*
X36179875Y-136235267D01*
X35877792Y-135990644D01*
X35877789Y-135990642D01*
X35877784Y-135990638D01*
X35551798Y-135778941D01*
X35205455Y-135602470D01*
X34842568Y-135463170D01*
X34842561Y-135463168D01*
X34467098Y-135362563D01*
X34467094Y-135362562D01*
X34467093Y-135362562D01*
X34083176Y-135301755D01*
X33695000Y-135281412D01*
X33694998Y-135281412D01*
X33306821Y-135301755D01*
X32922905Y-135362562D01*
X32922903Y-135362562D01*
X32547429Y-135463170D01*
X32184542Y-135602470D01*
X31838200Y-135778941D01*
X31512213Y-135990638D01*
X31210127Y-136235263D01*
X31210119Y-136235270D01*
X30935268Y-136510121D01*
X30935261Y-136510129D01*
X30690636Y-136812215D01*
X30478939Y-137138202D01*
X30302468Y-137484544D01*
X30163168Y-137847431D01*
X30062560Y-138222905D01*
X30062560Y-138222907D01*
X30001753Y-138606823D01*
X29981410Y-138995000D01*
X29981410Y-138995001D01*
X26592894Y-138995001D01*
X26587078Y-125406904D01*
X29981410Y-125406904D01*
X30001753Y-125795081D01*
X30062560Y-126178997D01*
X30062560Y-126178999D01*
X30163168Y-126554473D01*
X30302468Y-126917360D01*
X30478939Y-127263703D01*
X30690636Y-127589689D01*
X30690640Y-127589694D01*
X30690642Y-127589697D01*
X30935265Y-127891780D01*
X31210123Y-128166638D01*
X31512206Y-128411261D01*
X31512210Y-128411263D01*
X31512213Y-128411266D01*
X31838199Y-128622963D01*
X31838204Y-128622966D01*
X32184546Y-128799436D01*
X32547437Y-128938737D01*
X32922900Y-129039342D01*
X33306823Y-129100150D01*
X33673529Y-129119367D01*
X33694998Y-129120493D01*
X33694999Y-129120493D01*
X33695000Y-129120493D01*
X33715343Y-129119426D01*
X34083175Y-129100150D01*
X34467098Y-129039342D01*
X34842561Y-128938737D01*
X35205452Y-128799436D01*
X35551794Y-128622966D01*
X35877792Y-128411261D01*
X36179875Y-128166638D01*
X36454733Y-127891780D01*
X36699356Y-127589697D01*
X36911061Y-127263699D01*
X37087531Y-126917357D01*
X37226832Y-126554466D01*
X37327437Y-126179003D01*
X37388245Y-125795080D01*
X37408588Y-125406904D01*
X42148105Y-125406904D01*
X42168448Y-125795081D01*
X42229255Y-126178997D01*
X42229255Y-126178999D01*
X42329863Y-126554473D01*
X42469163Y-126917360D01*
X42645634Y-127263703D01*
X42857331Y-127589689D01*
X42857335Y-127589694D01*
X42857337Y-127589697D01*
X43101960Y-127891780D01*
X43376818Y-128166638D01*
X43678901Y-128411261D01*
X43678905Y-128411263D01*
X43678908Y-128411266D01*
X44004894Y-128622963D01*
X44004899Y-128622966D01*
X44351241Y-128799436D01*
X44714132Y-128938737D01*
X45089595Y-129039342D01*
X45473518Y-129100150D01*
X45840224Y-129119367D01*
X45861693Y-129120493D01*
X45861694Y-129120493D01*
X45861695Y-129120493D01*
X45882038Y-129119426D01*
X46249870Y-129100150D01*
X46633793Y-129039342D01*
X47009256Y-128938737D01*
X47372147Y-128799436D01*
X47718489Y-128622966D01*
X48044487Y-128411261D01*
X48346570Y-128166638D01*
X48621428Y-127891780D01*
X48866051Y-127589697D01*
X49077756Y-127263699D01*
X49254226Y-126917357D01*
X49393527Y-126554466D01*
X49494132Y-126179003D01*
X49554940Y-125795080D01*
X49575283Y-125406904D01*
X54314708Y-125406904D01*
X54335051Y-125795081D01*
X54395858Y-126178997D01*
X54395858Y-126178999D01*
X54496466Y-126554473D01*
X54635766Y-126917360D01*
X54812237Y-127263703D01*
X55023934Y-127589689D01*
X55023938Y-127589694D01*
X55023940Y-127589697D01*
X55268563Y-127891780D01*
X55543421Y-128166638D01*
X55845504Y-128411261D01*
X55845508Y-128411263D01*
X55845511Y-128411266D01*
X56171497Y-128622963D01*
X56171502Y-128622966D01*
X56517844Y-128799436D01*
X56880735Y-128938737D01*
X57256198Y-129039342D01*
X57640121Y-129100150D01*
X58006827Y-129119367D01*
X58028296Y-129120493D01*
X58028297Y-129120493D01*
X58028298Y-129120493D01*
X58048641Y-129119426D01*
X58416473Y-129100150D01*
X58800396Y-129039342D01*
X59175859Y-128938737D01*
X59538750Y-128799436D01*
X59885092Y-128622966D01*
X60211090Y-128411261D01*
X60513173Y-128166638D01*
X60788031Y-127891780D01*
X61032654Y-127589697D01*
X61244359Y-127263699D01*
X61420829Y-126917357D01*
X61560130Y-126554466D01*
X61660735Y-126179003D01*
X61721543Y-125795080D01*
X61741886Y-125406904D01*
X66481411Y-125406904D01*
X66501754Y-125795081D01*
X66562561Y-126178997D01*
X66562561Y-126178999D01*
X66663169Y-126554473D01*
X66802469Y-126917360D01*
X66978940Y-127263703D01*
X67190637Y-127589689D01*
X67190641Y-127589694D01*
X67190643Y-127589697D01*
X67435266Y-127891780D01*
X67710124Y-128166638D01*
X68012207Y-128411261D01*
X68012211Y-128411263D01*
X68012214Y-128411266D01*
X68338200Y-128622963D01*
X68338205Y-128622966D01*
X68684547Y-128799436D01*
X69047438Y-128938737D01*
X69422901Y-129039342D01*
X69806824Y-129100150D01*
X70173530Y-129119367D01*
X70194999Y-129120493D01*
X70195000Y-129120493D01*
X70195001Y-129120493D01*
X70215344Y-129119426D01*
X70583176Y-129100150D01*
X70967099Y-129039342D01*
X71342562Y-128938737D01*
X71705453Y-128799436D01*
X72051795Y-128622966D01*
X72377793Y-128411261D01*
X72679876Y-128166638D01*
X72954734Y-127891780D01*
X73199357Y-127589697D01*
X73411062Y-127263699D01*
X73587532Y-126917357D01*
X73726833Y-126554466D01*
X73827438Y-126179003D01*
X73888246Y-125795080D01*
X73908589Y-125406904D01*
X73888246Y-125018728D01*
X73827438Y-124634805D01*
X73726833Y-124259342D01*
X73587532Y-123896451D01*
X73411062Y-123550110D01*
X73199357Y-123224111D01*
X72954734Y-122922028D01*
X72679876Y-122647170D01*
X72377793Y-122402547D01*
X72377790Y-122402545D01*
X72377785Y-122402541D01*
X72051799Y-122190844D01*
X71705456Y-122014373D01*
X71342569Y-121875073D01*
X71342562Y-121875071D01*
X70967099Y-121774466D01*
X70967095Y-121774465D01*
X70967094Y-121774465D01*
X70583177Y-121713658D01*
X70195001Y-121693315D01*
X70194999Y-121693315D01*
X69806822Y-121713658D01*
X69422906Y-121774465D01*
X69422904Y-121774465D01*
X69047430Y-121875073D01*
X68684543Y-122014373D01*
X68338201Y-122190844D01*
X68012214Y-122402541D01*
X67710128Y-122647166D01*
X67710120Y-122647173D01*
X67435269Y-122922024D01*
X67435262Y-122922032D01*
X67190637Y-123224118D01*
X66978940Y-123550105D01*
X66802469Y-123896447D01*
X66663169Y-124259334D01*
X66562561Y-124634808D01*
X66562561Y-124634810D01*
X66501754Y-125018726D01*
X66481411Y-125406903D01*
X66481411Y-125406904D01*
X61741886Y-125406904D01*
X61721543Y-125018728D01*
X61660735Y-124634805D01*
X61560130Y-124259342D01*
X61420829Y-123896451D01*
X61244359Y-123550110D01*
X61032654Y-123224111D01*
X60788031Y-122922028D01*
X60513173Y-122647170D01*
X60211090Y-122402547D01*
X60211087Y-122402545D01*
X60211082Y-122402541D01*
X59885096Y-122190844D01*
X59538753Y-122014373D01*
X59175866Y-121875073D01*
X59175859Y-121875071D01*
X58800396Y-121774466D01*
X58800392Y-121774465D01*
X58800391Y-121774465D01*
X58416474Y-121713658D01*
X58028298Y-121693315D01*
X58028296Y-121693315D01*
X57640119Y-121713658D01*
X57256203Y-121774465D01*
X57256201Y-121774465D01*
X56880727Y-121875073D01*
X56517840Y-122014373D01*
X56171498Y-122190844D01*
X55845511Y-122402541D01*
X55543425Y-122647166D01*
X55543417Y-122647173D01*
X55268566Y-122922024D01*
X55268559Y-122922032D01*
X55023934Y-123224118D01*
X54812237Y-123550105D01*
X54635766Y-123896447D01*
X54496466Y-124259334D01*
X54395858Y-124634808D01*
X54395858Y-124634810D01*
X54335051Y-125018726D01*
X54314708Y-125406903D01*
X54314708Y-125406904D01*
X49575283Y-125406904D01*
X49554940Y-125018728D01*
X49494132Y-124634805D01*
X49393527Y-124259342D01*
X49254226Y-123896451D01*
X49077756Y-123550110D01*
X48866051Y-123224111D01*
X48621428Y-122922028D01*
X48346570Y-122647170D01*
X48044487Y-122402547D01*
X48044484Y-122402545D01*
X48044479Y-122402541D01*
X47718493Y-122190844D01*
X47372150Y-122014373D01*
X47009263Y-121875073D01*
X47009256Y-121875071D01*
X46633793Y-121774466D01*
X46633789Y-121774465D01*
X46633788Y-121774465D01*
X46249871Y-121713658D01*
X45861695Y-121693315D01*
X45861693Y-121693315D01*
X45473516Y-121713658D01*
X45089600Y-121774465D01*
X45089598Y-121774465D01*
X44714124Y-121875073D01*
X44351237Y-122014373D01*
X44004895Y-122190844D01*
X43678908Y-122402541D01*
X43376822Y-122647166D01*
X43376814Y-122647173D01*
X43101963Y-122922024D01*
X43101956Y-122922032D01*
X42857331Y-123224118D01*
X42645634Y-123550105D01*
X42469163Y-123896447D01*
X42329863Y-124259334D01*
X42229255Y-124634808D01*
X42229255Y-124634810D01*
X42168448Y-125018726D01*
X42148105Y-125406903D01*
X42148105Y-125406904D01*
X37408588Y-125406904D01*
X37388245Y-125018728D01*
X37327437Y-124634805D01*
X37226832Y-124259342D01*
X37087531Y-123896451D01*
X36911061Y-123550110D01*
X36699356Y-123224111D01*
X36454733Y-122922028D01*
X36179875Y-122647170D01*
X35877792Y-122402547D01*
X35877789Y-122402545D01*
X35877784Y-122402541D01*
X35551798Y-122190844D01*
X35205455Y-122014373D01*
X34842568Y-121875073D01*
X34842561Y-121875071D01*
X34467098Y-121774466D01*
X34467094Y-121774465D01*
X34467093Y-121774465D01*
X34083176Y-121713658D01*
X33695000Y-121693315D01*
X33694998Y-121693315D01*
X33306821Y-121713658D01*
X32922905Y-121774465D01*
X32922903Y-121774465D01*
X32547429Y-121875073D01*
X32184542Y-122014373D01*
X31838200Y-122190844D01*
X31512213Y-122402541D01*
X31210127Y-122647166D01*
X31210119Y-122647173D01*
X30935268Y-122922024D01*
X30935261Y-122922032D01*
X30690636Y-123224118D01*
X30478939Y-123550105D01*
X30302468Y-123896447D01*
X30163168Y-124259334D01*
X30062560Y-124634808D01*
X30062560Y-124634810D01*
X30001753Y-125018726D01*
X29981410Y-125406903D01*
X29981410Y-125406904D01*
X26587078Y-125406904D01*
X26581193Y-111656952D01*
X29981410Y-111656952D01*
X30001753Y-112045129D01*
X30062560Y-112429045D01*
X30062560Y-112429047D01*
X30163168Y-112804521D01*
X30302468Y-113167408D01*
X30478939Y-113513751D01*
X30690636Y-113839737D01*
X30690640Y-113839742D01*
X30690642Y-113839745D01*
X30935265Y-114141828D01*
X31210123Y-114416686D01*
X31512206Y-114661309D01*
X31512210Y-114661311D01*
X31512213Y-114661314D01*
X31838199Y-114873011D01*
X31838204Y-114873014D01*
X32184546Y-115049484D01*
X32499367Y-115170332D01*
X32547301Y-115188733D01*
X32547437Y-115188785D01*
X32922900Y-115289390D01*
X33306823Y-115350198D01*
X33673529Y-115369415D01*
X33694998Y-115370541D01*
X33694999Y-115370541D01*
X33695000Y-115370541D01*
X33715343Y-115369474D01*
X34083175Y-115350198D01*
X34467098Y-115289390D01*
X34842561Y-115188785D01*
X35205452Y-115049484D01*
X35551794Y-114873014D01*
X35877792Y-114661309D01*
X36179875Y-114416686D01*
X36454733Y-114141828D01*
X36699356Y-113839745D01*
X36911061Y-113513747D01*
X37087531Y-113167405D01*
X37226832Y-112804514D01*
X37327437Y-112429051D01*
X37388245Y-112045128D01*
X37408588Y-111656952D01*
X37408585Y-111656903D01*
X42148105Y-111656903D01*
X42168448Y-112045080D01*
X42229255Y-112428996D01*
X42229255Y-112428998D01*
X42329863Y-112804472D01*
X42469163Y-113167359D01*
X42645634Y-113513702D01*
X42857331Y-113839688D01*
X42857335Y-113839693D01*
X42857337Y-113839696D01*
X43101960Y-114141779D01*
X43376818Y-114416637D01*
X43678901Y-114661260D01*
X43678905Y-114661262D01*
X43678908Y-114661265D01*
X44004894Y-114872962D01*
X44004899Y-114872965D01*
X44351241Y-115049435D01*
X44714132Y-115188736D01*
X45089595Y-115289341D01*
X45473518Y-115350149D01*
X45840224Y-115369366D01*
X45861693Y-115370492D01*
X45861694Y-115370492D01*
X45861695Y-115370492D01*
X45882038Y-115369425D01*
X46249870Y-115350149D01*
X46633793Y-115289341D01*
X47009256Y-115188736D01*
X47372147Y-115049435D01*
X47718489Y-114872965D01*
X48044487Y-114661260D01*
X48346570Y-114416637D01*
X48621428Y-114141779D01*
X48866051Y-113839696D01*
X49077756Y-113513698D01*
X49254226Y-113167356D01*
X49393527Y-112804465D01*
X49494132Y-112429002D01*
X49554940Y-112045079D01*
X49575283Y-111656903D01*
X54314708Y-111656903D01*
X54335051Y-112045080D01*
X54395858Y-112428996D01*
X54395858Y-112428998D01*
X54496466Y-112804472D01*
X54635766Y-113167359D01*
X54812237Y-113513702D01*
X55023934Y-113839688D01*
X55023938Y-113839693D01*
X55023940Y-113839696D01*
X55268563Y-114141779D01*
X55543421Y-114416637D01*
X55845504Y-114661260D01*
X55845508Y-114661262D01*
X55845511Y-114661265D01*
X56171497Y-114872962D01*
X56171502Y-114872965D01*
X56517844Y-115049435D01*
X56880735Y-115188736D01*
X57256198Y-115289341D01*
X57640121Y-115350149D01*
X58006827Y-115369366D01*
X58028296Y-115370492D01*
X58028297Y-115370492D01*
X58028298Y-115370492D01*
X58048641Y-115369425D01*
X58416473Y-115350149D01*
X58800396Y-115289341D01*
X59175859Y-115188736D01*
X59538750Y-115049435D01*
X59885092Y-114872965D01*
X60211090Y-114661260D01*
X60513173Y-114416637D01*
X60788031Y-114141779D01*
X61032654Y-113839696D01*
X61244359Y-113513698D01*
X61420829Y-113167356D01*
X61560130Y-112804465D01*
X61660735Y-112429002D01*
X61721543Y-112045079D01*
X61741886Y-111656903D01*
X66481411Y-111656903D01*
X66501754Y-112045080D01*
X66562561Y-112428996D01*
X66562561Y-112428998D01*
X66663169Y-112804472D01*
X66802469Y-113167359D01*
X66978940Y-113513702D01*
X67190637Y-113839688D01*
X67190641Y-113839693D01*
X67190643Y-113839696D01*
X67435266Y-114141779D01*
X67710124Y-114416637D01*
X68012207Y-114661260D01*
X68012211Y-114661262D01*
X68012214Y-114661265D01*
X68338200Y-114872962D01*
X68338205Y-114872965D01*
X68684547Y-115049435D01*
X69047438Y-115188736D01*
X69422901Y-115289341D01*
X69806824Y-115350149D01*
X70173530Y-115369366D01*
X70194999Y-115370492D01*
X70195000Y-115370492D01*
X70195001Y-115370492D01*
X70215344Y-115369425D01*
X70583176Y-115350149D01*
X70967099Y-115289341D01*
X71342562Y-115188736D01*
X71705453Y-115049435D01*
X72051795Y-114872965D01*
X72377793Y-114661260D01*
X72679876Y-114416637D01*
X72954734Y-114141779D01*
X73199357Y-113839696D01*
X73411062Y-113513698D01*
X73587532Y-113167356D01*
X73726833Y-112804465D01*
X73827438Y-112429002D01*
X73888246Y-112045079D01*
X73908589Y-111656903D01*
X73888246Y-111268727D01*
X73827438Y-110884804D01*
X73726833Y-110509341D01*
X73587532Y-110146450D01*
X73411062Y-109800109D01*
X73411059Y-109800104D01*
X73199362Y-109474117D01*
X73199359Y-109474114D01*
X73199357Y-109474110D01*
X72954734Y-109172027D01*
X72679876Y-108897169D01*
X72377793Y-108652546D01*
X72377790Y-108652544D01*
X72377785Y-108652540D01*
X72051799Y-108440843D01*
X71705456Y-108264372D01*
X71342569Y-108125072D01*
X71342562Y-108125070D01*
X70967099Y-108024465D01*
X70967095Y-108024464D01*
X70967094Y-108024464D01*
X70583177Y-107963657D01*
X70195001Y-107943314D01*
X70194999Y-107943314D01*
X69806822Y-107963657D01*
X69422906Y-108024464D01*
X69422904Y-108024464D01*
X69047430Y-108125072D01*
X68684543Y-108264372D01*
X68338201Y-108440843D01*
X68012214Y-108652540D01*
X67710128Y-108897165D01*
X67710120Y-108897172D01*
X67435269Y-109172023D01*
X67435262Y-109172031D01*
X67190637Y-109474117D01*
X66978940Y-109800104D01*
X66802469Y-110146446D01*
X66663169Y-110509333D01*
X66562561Y-110884807D01*
X66562561Y-110884809D01*
X66501754Y-111268725D01*
X66481411Y-111656902D01*
X66481411Y-111656903D01*
X61741886Y-111656903D01*
X61721543Y-111268727D01*
X61660735Y-110884804D01*
X61560130Y-110509341D01*
X61420829Y-110146450D01*
X61244359Y-109800109D01*
X61244356Y-109800104D01*
X61032659Y-109474117D01*
X61032656Y-109474114D01*
X61032654Y-109474110D01*
X60788031Y-109172027D01*
X60513173Y-108897169D01*
X60211090Y-108652546D01*
X60211087Y-108652544D01*
X60211082Y-108652540D01*
X59885096Y-108440843D01*
X59538753Y-108264372D01*
X59175866Y-108125072D01*
X59175859Y-108125070D01*
X58800396Y-108024465D01*
X58800392Y-108024464D01*
X58800391Y-108024464D01*
X58416474Y-107963657D01*
X58028298Y-107943314D01*
X58028296Y-107943314D01*
X57640119Y-107963657D01*
X57256203Y-108024464D01*
X57256201Y-108024464D01*
X56880727Y-108125072D01*
X56517840Y-108264372D01*
X56171498Y-108440843D01*
X55845511Y-108652540D01*
X55543425Y-108897165D01*
X55543417Y-108897172D01*
X55268566Y-109172023D01*
X55268559Y-109172031D01*
X55023934Y-109474117D01*
X54812237Y-109800104D01*
X54635766Y-110146446D01*
X54496466Y-110509333D01*
X54395858Y-110884807D01*
X54395858Y-110884809D01*
X54335051Y-111268725D01*
X54314708Y-111656902D01*
X54314708Y-111656903D01*
X49575283Y-111656903D01*
X49554940Y-111268727D01*
X49494132Y-110884804D01*
X49393527Y-110509341D01*
X49254226Y-110146450D01*
X49077756Y-109800109D01*
X49077753Y-109800104D01*
X48866056Y-109474117D01*
X48866053Y-109474114D01*
X48866051Y-109474110D01*
X48621428Y-109172027D01*
X48346570Y-108897169D01*
X48044487Y-108652546D01*
X48044484Y-108652544D01*
X48044479Y-108652540D01*
X47718493Y-108440843D01*
X47372150Y-108264372D01*
X47009263Y-108125072D01*
X47009256Y-108125070D01*
X46633793Y-108024465D01*
X46633789Y-108024464D01*
X46633788Y-108024464D01*
X46249871Y-107963657D01*
X45861695Y-107943314D01*
X45861693Y-107943314D01*
X45473516Y-107963657D01*
X45089600Y-108024464D01*
X45089598Y-108024464D01*
X44714124Y-108125072D01*
X44351237Y-108264372D01*
X44004895Y-108440843D01*
X43678908Y-108652540D01*
X43376822Y-108897165D01*
X43376814Y-108897172D01*
X43101963Y-109172023D01*
X43101956Y-109172031D01*
X42857331Y-109474117D01*
X42645634Y-109800104D01*
X42469163Y-110146446D01*
X42329863Y-110509333D01*
X42229255Y-110884807D01*
X42229255Y-110884809D01*
X42168448Y-111268725D01*
X42148105Y-111656902D01*
X42148105Y-111656903D01*
X37408585Y-111656903D01*
X37388245Y-111268776D01*
X37327437Y-110884853D01*
X37226832Y-110509390D01*
X37087531Y-110146499D01*
X36911061Y-109800158D01*
X36699356Y-109474159D01*
X36454733Y-109172076D01*
X36179875Y-108897218D01*
X35877792Y-108652595D01*
X35877789Y-108652593D01*
X35877784Y-108652589D01*
X35551798Y-108440892D01*
X35205455Y-108264421D01*
X34842568Y-108125121D01*
X34842561Y-108125119D01*
X34467098Y-108024514D01*
X34467094Y-108024513D01*
X34467093Y-108024513D01*
X34083176Y-107963706D01*
X33695000Y-107943363D01*
X33694998Y-107943363D01*
X33306821Y-107963706D01*
X32922905Y-108024513D01*
X32922903Y-108024513D01*
X32547429Y-108125121D01*
X32184542Y-108264421D01*
X31838200Y-108440892D01*
X31512213Y-108652589D01*
X31210127Y-108897214D01*
X31210119Y-108897221D01*
X30935268Y-109172072D01*
X30935261Y-109172080D01*
X30690636Y-109474166D01*
X30478939Y-109800153D01*
X30302468Y-110146495D01*
X30163168Y-110509382D01*
X30062560Y-110884856D01*
X30062560Y-110884858D01*
X30001753Y-111268774D01*
X29981410Y-111656951D01*
X29981410Y-111656952D01*
X26581193Y-111656952D01*
X26570376Y-86383227D01*
X31881636Y-86383227D01*
X31901058Y-86741459D01*
X31959101Y-87095504D01*
X31959102Y-87095507D01*
X32055077Y-87441180D01*
X32055078Y-87441182D01*
X32187867Y-87774458D01*
X32187876Y-87774476D01*
X32355923Y-88091445D01*
X32355924Y-88091448D01*
X32557251Y-88388382D01*
X32557259Y-88388392D01*
X32708113Y-88565991D01*
X32789511Y-88661820D01*
X33049972Y-88908542D01*
X33335581Y-89125656D01*
X33642990Y-89310618D01*
X33642992Y-89310619D01*
X33642994Y-89310620D01*
X33642998Y-89310622D01*
X33809304Y-89387563D01*
X33968594Y-89461258D01*
X34308578Y-89575812D01*
X34658953Y-89652936D01*
X35015613Y-89691725D01*
X35015619Y-89691725D01*
X35374371Y-89691725D01*
X35374377Y-89691725D01*
X35731037Y-89652936D01*
X36081412Y-89575812D01*
X36421396Y-89461258D01*
X36747000Y-89310618D01*
X37054409Y-89125656D01*
X37151832Y-89051597D01*
X48334305Y-89051597D01*
X48347879Y-89310620D01*
X48354648Y-89439773D01*
X48415456Y-89823696D01*
X48483181Y-90076451D01*
X48516063Y-90199166D01*
X48655363Y-90562053D01*
X48831834Y-90908396D01*
X49043531Y-91234382D01*
X49043535Y-91234387D01*
X49043537Y-91234390D01*
X49288160Y-91536473D01*
X49563018Y-91811331D01*
X49865101Y-92055954D01*
X49865105Y-92055956D01*
X49865108Y-92055959D01*
X50191094Y-92267656D01*
X50191099Y-92267659D01*
X50537441Y-92444129D01*
X50900332Y-92583430D01*
X51275795Y-92684035D01*
X51659718Y-92744843D01*
X52026424Y-92764060D01*
X52047893Y-92765186D01*
X52047894Y-92765186D01*
X52047895Y-92765186D01*
X52068238Y-92764119D01*
X52436070Y-92744843D01*
X52819993Y-92684035D01*
X53195456Y-92583430D01*
X53558347Y-92444129D01*
X53904689Y-92267659D01*
X54230687Y-92055954D01*
X54532770Y-91811331D01*
X54807628Y-91536473D01*
X55052251Y-91234390D01*
X55263956Y-90908392D01*
X55440426Y-90562050D01*
X55579727Y-90199159D01*
X55680332Y-89823696D01*
X55741140Y-89439773D01*
X55761483Y-89051597D01*
X55741140Y-88663421D01*
X55680332Y-88279498D01*
X55579727Y-87904035D01*
X55440426Y-87541144D01*
X55263956Y-87194803D01*
X55238306Y-87155305D01*
X55052256Y-86868811D01*
X55052253Y-86868808D01*
X55052251Y-86868804D01*
X54807628Y-86566721D01*
X54624113Y-86383206D01*
X64986498Y-86383206D01*
X65006841Y-86771382D01*
X65067649Y-87155305D01*
X65078232Y-87194803D01*
X65168256Y-87530775D01*
X65307556Y-87893662D01*
X65484027Y-88240005D01*
X65695724Y-88565991D01*
X65695728Y-88565996D01*
X65695730Y-88565999D01*
X65940353Y-88868082D01*
X66215211Y-89142940D01*
X66517294Y-89387563D01*
X66517298Y-89387565D01*
X66517301Y-89387568D01*
X66843287Y-89599265D01*
X66843292Y-89599268D01*
X67189634Y-89775738D01*
X67552525Y-89915039D01*
X67927988Y-90015644D01*
X68311911Y-90076452D01*
X68678617Y-90095669D01*
X68700086Y-90096795D01*
X68700087Y-90096795D01*
X68700088Y-90096795D01*
X68720431Y-90095728D01*
X69088263Y-90076452D01*
X69472186Y-90015644D01*
X69847649Y-89915039D01*
X70210540Y-89775738D01*
X70556882Y-89599268D01*
X70882880Y-89387563D01*
X71184963Y-89142940D01*
X71459821Y-88868082D01*
X71704444Y-88565999D01*
X71916149Y-88240001D01*
X72092619Y-87893659D01*
X72231920Y-87530768D01*
X72332525Y-87155305D01*
X72393333Y-86771382D01*
X72413676Y-86383206D01*
X72393333Y-85995030D01*
X72332525Y-85611107D01*
X72231920Y-85235644D01*
X72092619Y-84872753D01*
X71916149Y-84526412D01*
X71916146Y-84526407D01*
X71704449Y-84200420D01*
X71704446Y-84200417D01*
X71704444Y-84200413D01*
X71459821Y-83898330D01*
X71184963Y-83623472D01*
X70882880Y-83378849D01*
X70882877Y-83378847D01*
X70882872Y-83378843D01*
X70556886Y-83167146D01*
X70210543Y-82990675D01*
X69847656Y-82851375D01*
X69847649Y-82851373D01*
X69472186Y-82750768D01*
X69472182Y-82750767D01*
X69472181Y-82750767D01*
X69088264Y-82689960D01*
X68700088Y-82669617D01*
X68700086Y-82669617D01*
X68311909Y-82689960D01*
X67927993Y-82750767D01*
X67927991Y-82750767D01*
X67552517Y-82851375D01*
X67189630Y-82990675D01*
X66843288Y-83167146D01*
X66517301Y-83378843D01*
X66215215Y-83623468D01*
X66215207Y-83623475D01*
X65940356Y-83898326D01*
X65940349Y-83898334D01*
X65695724Y-84200420D01*
X65484027Y-84526407D01*
X65307556Y-84872749D01*
X65168256Y-85235636D01*
X65067648Y-85611110D01*
X65067648Y-85611112D01*
X65032103Y-85835535D01*
X65006841Y-85995030D01*
X64986498Y-86383206D01*
X54624113Y-86383206D01*
X54532770Y-86291863D01*
X54230687Y-86047240D01*
X54230684Y-86047238D01*
X54230679Y-86047234D01*
X53904693Y-85835537D01*
X53558350Y-85659066D01*
X53195463Y-85519766D01*
X53195456Y-85519764D01*
X52819993Y-85419159D01*
X52819989Y-85419158D01*
X52819988Y-85419158D01*
X52436071Y-85358351D01*
X52047895Y-85338008D01*
X52047893Y-85338008D01*
X51659716Y-85358351D01*
X51275800Y-85419158D01*
X51275798Y-85419158D01*
X50900324Y-85519766D01*
X50537437Y-85659066D01*
X50191095Y-85835537D01*
X49865108Y-86047234D01*
X49563022Y-86291859D01*
X49563014Y-86291866D01*
X49288163Y-86566717D01*
X49288156Y-86566725D01*
X49043531Y-86868811D01*
X48831834Y-87194798D01*
X48655363Y-87541140D01*
X48516063Y-87904027D01*
X48415455Y-88279501D01*
X48415455Y-88279503D01*
X48354648Y-88663419D01*
X48334305Y-89051596D01*
X48334305Y-89051597D01*
X37151832Y-89051597D01*
X37340018Y-88908542D01*
X37600479Y-88661820D01*
X37832737Y-88388384D01*
X38034070Y-88091440D01*
X38202118Y-87774468D01*
X38334910Y-87441186D01*
X38430890Y-87095499D01*
X38488931Y-86741462D01*
X38508354Y-86383225D01*
X38488931Y-86024988D01*
X38430890Y-85670951D01*
X38344097Y-85358351D01*
X38334912Y-85325269D01*
X38334911Y-85325267D01*
X38202122Y-84991991D01*
X38202113Y-84991973D01*
X38034070Y-84675010D01*
X38034066Y-84675004D01*
X38034065Y-84675001D01*
X37832738Y-84378067D01*
X37832730Y-84378057D01*
X37600486Y-84104638D01*
X37600481Y-84104632D01*
X37600479Y-84104630D01*
X37340018Y-83857908D01*
X37340011Y-83857902D01*
X37340008Y-83857900D01*
X37272261Y-83806400D01*
X37054409Y-83640794D01*
X36747000Y-83455832D01*
X36746999Y-83455831D01*
X36746995Y-83455829D01*
X36746991Y-83455827D01*
X36421406Y-83305196D01*
X36421401Y-83305194D01*
X36421396Y-83305192D01*
X36255673Y-83249353D01*
X36081411Y-83190637D01*
X35731035Y-83113513D01*
X35374378Y-83074725D01*
X35374377Y-83074725D01*
X35015613Y-83074725D01*
X35015611Y-83074725D01*
X34658954Y-83113513D01*
X34308578Y-83190637D01*
X34045763Y-83279190D01*
X33968594Y-83305192D01*
X33968591Y-83305193D01*
X33968583Y-83305196D01*
X33642998Y-83455827D01*
X33642994Y-83455829D01*
X33414056Y-83593576D01*
X33335581Y-83640794D01*
X33247055Y-83708089D01*
X33049981Y-83857900D01*
X33049972Y-83857908D01*
X32789508Y-84104632D01*
X32789503Y-84104638D01*
X32557259Y-84378057D01*
X32557251Y-84378067D01*
X32355924Y-84675001D01*
X32355923Y-84675004D01*
X32187876Y-84991973D01*
X32187867Y-84991991D01*
X32055078Y-85325267D01*
X32055077Y-85325269D01*
X31959102Y-85670942D01*
X31959101Y-85670945D01*
X31901058Y-86024990D01*
X31881636Y-86383222D01*
X31881636Y-86383227D01*
X26570376Y-86383227D01*
X26564804Y-73365889D01*
X50684416Y-73365889D01*
X50684459Y-73390001D01*
X50684500Y-73390099D01*
X50684616Y-73390382D01*
X50684618Y-73390384D01*
X50684808Y-73390462D01*
X50685000Y-73390541D01*
X50685002Y-73390539D01*
X50709616Y-73390524D01*
X50709616Y-73390528D01*
X50709760Y-73390500D01*
X53868240Y-73390500D01*
X53868383Y-73390528D01*
X53868384Y-73390524D01*
X53892997Y-73390539D01*
X53893000Y-73390541D01*
X53893383Y-73390383D01*
X53893500Y-73390099D01*
X53893541Y-73390000D01*
X53893540Y-73389997D01*
X53893583Y-73365889D01*
X53893500Y-73365467D01*
X53893500Y-69122311D01*
X61981421Y-69122311D01*
X62001711Y-69535314D01*
X62001711Y-69535319D01*
X62001712Y-69535324D01*
X62062385Y-69944345D01*
X62162859Y-70345457D01*
X62302152Y-70734756D01*
X62302160Y-70734776D01*
X62478955Y-71108577D01*
X62478957Y-71108580D01*
X62691534Y-71463245D01*
X62937862Y-71795380D01*
X63215548Y-72101758D01*
X63521926Y-72379444D01*
X63521932Y-72379449D01*
X63854059Y-72625771D01*
X64208730Y-72838352D01*
X64582531Y-73015147D01*
X64582545Y-73015152D01*
X64582550Y-73015154D01*
X64877919Y-73120838D01*
X64971860Y-73154451D01*
X65372968Y-73254923D01*
X65781993Y-73315596D01*
X66194996Y-73335886D01*
X66607999Y-73315596D01*
X67017024Y-73254923D01*
X67418132Y-73154451D01*
X67807461Y-73015147D01*
X68181262Y-72838352D01*
X68535933Y-72625771D01*
X68868060Y-72379449D01*
X69174443Y-72101758D01*
X69452134Y-71795375D01*
X69698456Y-71463248D01*
X69911037Y-71108577D01*
X70087832Y-70734776D01*
X70227136Y-70345447D01*
X70327608Y-69944339D01*
X70388281Y-69535314D01*
X70408571Y-69122311D01*
X70388281Y-68709308D01*
X70327608Y-68300283D01*
X70227136Y-67899175D01*
X70087832Y-67509846D01*
X69911037Y-67136045D01*
X69698456Y-66781374D01*
X69452134Y-66449247D01*
X69452129Y-66449241D01*
X69174443Y-66142863D01*
X68868065Y-65865177D01*
X68535930Y-65618849D01*
X68181265Y-65406272D01*
X68181266Y-65406272D01*
X68181262Y-65406270D01*
X67807461Y-65229475D01*
X67807441Y-65229467D01*
X67418142Y-65090174D01*
X67418136Y-65090172D01*
X67418132Y-65090171D01*
X67219149Y-65040328D01*
X67017030Y-64989700D01*
X67017025Y-64989699D01*
X67017024Y-64989699D01*
X66941211Y-64978453D01*
X66608009Y-64929027D01*
X66608004Y-64929026D01*
X66607999Y-64929026D01*
X66194996Y-64908736D01*
X65781993Y-64929026D01*
X65781988Y-64929026D01*
X65781982Y-64929027D01*
X65372961Y-64989700D01*
X65070173Y-65065544D01*
X64971860Y-65090171D01*
X64971857Y-65090171D01*
X64971849Y-65090174D01*
X64582550Y-65229467D01*
X64582530Y-65229475D01*
X64208726Y-65406272D01*
X63854061Y-65618849D01*
X63521926Y-65865177D01*
X63215548Y-66142863D01*
X62937862Y-66449241D01*
X62691534Y-66781376D01*
X62478957Y-67136041D01*
X62302160Y-67509845D01*
X62302152Y-67509865D01*
X62162859Y-67899164D01*
X62062385Y-68300276D01*
X62001712Y-68709297D01*
X62001711Y-68709303D01*
X62001711Y-68709308D01*
X61981421Y-69122311D01*
X53893500Y-69122311D01*
X53893500Y-60612759D01*
X53893528Y-60612616D01*
X53893524Y-60612616D01*
X53893539Y-60588002D01*
X53893541Y-60588000D01*
X53893462Y-60587808D01*
X53893384Y-60587618D01*
X53893382Y-60587616D01*
X53893099Y-60587500D01*
X53893000Y-60587459D01*
X53868446Y-60587459D01*
X53868240Y-60587500D01*
X50709760Y-60587500D01*
X50709554Y-60587459D01*
X50685000Y-60587459D01*
X50684901Y-60587500D01*
X50684617Y-60587616D01*
X50684615Y-60587618D01*
X50684459Y-60587999D01*
X50684476Y-60612616D01*
X50684471Y-60612616D01*
X50684500Y-60612759D01*
X50684500Y-73365467D01*
X50684416Y-73365889D01*
X26564804Y-73365889D01*
X26562988Y-69122311D01*
X33506925Y-69122311D01*
X33527215Y-69535314D01*
X33527215Y-69535319D01*
X33527216Y-69535324D01*
X33587889Y-69944345D01*
X33688363Y-70345457D01*
X33827656Y-70734756D01*
X33827664Y-70734776D01*
X34004459Y-71108577D01*
X34004461Y-71108580D01*
X34217038Y-71463245D01*
X34463366Y-71795380D01*
X34741052Y-72101758D01*
X35047430Y-72379444D01*
X35047436Y-72379449D01*
X35379563Y-72625771D01*
X35734234Y-72838352D01*
X36108035Y-73015147D01*
X36108049Y-73015152D01*
X36108054Y-73015154D01*
X36403423Y-73120838D01*
X36497364Y-73154451D01*
X36898472Y-73254923D01*
X37307497Y-73315596D01*
X37720500Y-73335886D01*
X38133503Y-73315596D01*
X38542528Y-73254923D01*
X38943636Y-73154451D01*
X39332965Y-73015147D01*
X39706766Y-72838352D01*
X40061437Y-72625771D01*
X40393564Y-72379449D01*
X40699947Y-72101758D01*
X40977638Y-71795375D01*
X41223960Y-71463248D01*
X41436541Y-71108577D01*
X41613336Y-70734776D01*
X41752640Y-70345447D01*
X41853112Y-69944339D01*
X41913785Y-69535314D01*
X41934075Y-69122311D01*
X41913785Y-68709308D01*
X41853112Y-68300283D01*
X41752640Y-67899175D01*
X41613336Y-67509846D01*
X41436541Y-67136045D01*
X41223960Y-66781374D01*
X40977638Y-66449247D01*
X40977633Y-66449241D01*
X40699947Y-66142863D01*
X40393569Y-65865177D01*
X40061434Y-65618849D01*
X39706769Y-65406272D01*
X39706770Y-65406272D01*
X39706766Y-65406270D01*
X39332965Y-65229475D01*
X39332945Y-65229467D01*
X38943646Y-65090174D01*
X38943640Y-65090172D01*
X38943636Y-65090171D01*
X38744653Y-65040328D01*
X38542534Y-64989700D01*
X38542529Y-64989699D01*
X38542528Y-64989699D01*
X38466715Y-64978453D01*
X38133513Y-64929027D01*
X38133508Y-64929026D01*
X38133503Y-64929026D01*
X37720500Y-64908736D01*
X37307497Y-64929026D01*
X37307492Y-64929026D01*
X37307486Y-64929027D01*
X36898465Y-64989700D01*
X36595677Y-65065544D01*
X36497364Y-65090171D01*
X36497361Y-65090171D01*
X36497353Y-65090174D01*
X36108054Y-65229467D01*
X36108034Y-65229475D01*
X35734230Y-65406272D01*
X35379565Y-65618849D01*
X35047430Y-65865177D01*
X34741052Y-66142863D01*
X34463366Y-66449241D01*
X34217038Y-66781376D01*
X34004461Y-67136041D01*
X33827664Y-67509845D01*
X33827656Y-67509865D01*
X33688363Y-67899164D01*
X33587889Y-68300276D01*
X33527216Y-68709297D01*
X33527215Y-68709303D01*
X33527215Y-68709308D01*
X33506925Y-69122311D01*
X26562988Y-69122311D01*
X26554803Y-49999289D01*
X33506925Y-49999289D01*
X33527215Y-50412292D01*
X33527215Y-50412297D01*
X33527216Y-50412302D01*
X33587889Y-50821323D01*
X33688363Y-51222435D01*
X33827656Y-51611734D01*
X33827664Y-51611754D01*
X34004459Y-51985555D01*
X34004461Y-51985558D01*
X34217038Y-52340223D01*
X34463366Y-52672358D01*
X34741052Y-52978736D01*
X35047430Y-53256422D01*
X35047436Y-53256427D01*
X35379563Y-53502749D01*
X35734234Y-53715330D01*
X36108035Y-53892125D01*
X36108049Y-53892130D01*
X36108054Y-53892132D01*
X36403423Y-53997816D01*
X36497364Y-54031429D01*
X36898472Y-54131901D01*
X37307497Y-54192574D01*
X37720500Y-54212864D01*
X38133503Y-54192574D01*
X38542528Y-54131901D01*
X38943636Y-54031429D01*
X39332965Y-53892125D01*
X39706766Y-53715330D01*
X40061437Y-53502749D01*
X40393564Y-53256427D01*
X40699947Y-52978736D01*
X40977638Y-52672353D01*
X41223960Y-52340226D01*
X41436541Y-51985555D01*
X41613336Y-51611754D01*
X41752640Y-51222425D01*
X41853112Y-50821317D01*
X41913785Y-50412292D01*
X41934075Y-49999289D01*
X61981421Y-49999289D01*
X62001711Y-50412292D01*
X62001711Y-50412297D01*
X62001712Y-50412302D01*
X62062385Y-50821323D01*
X62162859Y-51222435D01*
X62302152Y-51611734D01*
X62302160Y-51611754D01*
X62478955Y-51985555D01*
X62478957Y-51985558D01*
X62691534Y-52340223D01*
X62937862Y-52672358D01*
X63215548Y-52978736D01*
X63521926Y-53256422D01*
X63521932Y-53256427D01*
X63854059Y-53502749D01*
X64208730Y-53715330D01*
X64582531Y-53892125D01*
X64582545Y-53892130D01*
X64582550Y-53892132D01*
X64877919Y-53997816D01*
X64971860Y-54031429D01*
X65372968Y-54131901D01*
X65781993Y-54192574D01*
X66194996Y-54212864D01*
X66607999Y-54192574D01*
X67017024Y-54131901D01*
X67418132Y-54031429D01*
X67807461Y-53892125D01*
X68181262Y-53715330D01*
X68535933Y-53502749D01*
X68868060Y-53256427D01*
X69174443Y-52978736D01*
X69452134Y-52672353D01*
X69698456Y-52340226D01*
X69911037Y-51985555D01*
X70087832Y-51611754D01*
X70227136Y-51222425D01*
X70327608Y-50821317D01*
X70388281Y-50412292D01*
X70408571Y-49999289D01*
X70388281Y-49586286D01*
X70327608Y-49177261D01*
X70227136Y-48776153D01*
X70087832Y-48386824D01*
X69911037Y-48013023D01*
X69698456Y-47658352D01*
X69452134Y-47326225D01*
X69440677Y-47313584D01*
X69174443Y-47019841D01*
X68868065Y-46742155D01*
X68789691Y-46684029D01*
X68535933Y-46495829D01*
X68400690Y-46414768D01*
X68181265Y-46283250D01*
X68181266Y-46283250D01*
X68181262Y-46283248D01*
X67807461Y-46106453D01*
X67807441Y-46106445D01*
X67418142Y-45967152D01*
X67418136Y-45967150D01*
X67418132Y-45967149D01*
X67219149Y-45917306D01*
X67017030Y-45866678D01*
X67017025Y-45866677D01*
X67017024Y-45866677D01*
X66941211Y-45855431D01*
X66608009Y-45806005D01*
X66608004Y-45806004D01*
X66607999Y-45806004D01*
X66194996Y-45785714D01*
X65781993Y-45806004D01*
X65781988Y-45806004D01*
X65781982Y-45806005D01*
X65372961Y-45866678D01*
X65070173Y-45942522D01*
X64971860Y-45967149D01*
X64971857Y-45967149D01*
X64971849Y-45967152D01*
X64582550Y-46106445D01*
X64582530Y-46106453D01*
X64208726Y-46283250D01*
X63854061Y-46495827D01*
X63521926Y-46742155D01*
X63215548Y-47019841D01*
X62937862Y-47326219D01*
X62691534Y-47658354D01*
X62478957Y-48013019D01*
X62302160Y-48386823D01*
X62302152Y-48386843D01*
X62162859Y-48776142D01*
X62062385Y-49177254D01*
X62001712Y-49586275D01*
X62001711Y-49586281D01*
X62001711Y-49586286D01*
X61981421Y-49999289D01*
X41934075Y-49999289D01*
X41913785Y-49586286D01*
X41853112Y-49177261D01*
X41752640Y-48776153D01*
X41613336Y-48386824D01*
X41436541Y-48013023D01*
X41223960Y-47658352D01*
X40977638Y-47326225D01*
X40966181Y-47313584D01*
X40699947Y-47019841D01*
X40393569Y-46742155D01*
X40315195Y-46684029D01*
X40061437Y-46495829D01*
X39926194Y-46414768D01*
X50090786Y-46414768D01*
X50120412Y-46684018D01*
X50120414Y-46684029D01*
X50188925Y-46946087D01*
X50188927Y-46946093D01*
X50294869Y-47195395D01*
X50366997Y-47313580D01*
X50435978Y-47426610D01*
X50435985Y-47426620D01*
X50609252Y-47634824D01*
X50609258Y-47634829D01*
X50635514Y-47658354D01*
X50810997Y-47815587D01*
X51036909Y-47965049D01*
X51282175Y-48080025D01*
X51282182Y-48080027D01*
X51282184Y-48080028D01*
X51541556Y-48158062D01*
X51541563Y-48158063D01*
X51541568Y-48158065D01*
X51809560Y-48197505D01*
X51809565Y-48197505D01*
X52012635Y-48197505D01*
X52064132Y-48193735D01*
X52215155Y-48182682D01*
X52327757Y-48157598D01*
X52479545Y-48123787D01*
X52479547Y-48123786D01*
X52479552Y-48123785D01*
X52732557Y-48027019D01*
X52968776Y-47894446D01*
X53183176Y-47728893D01*
X53371185Y-47533886D01*
X53528798Y-47313584D01*
X53602786Y-47169674D01*
X53652648Y-47072695D01*
X53652650Y-47072689D01*
X53652655Y-47072680D01*
X53740117Y-46816310D01*
X53789318Y-46549938D01*
X53799211Y-46279240D01*
X53769585Y-46009987D01*
X53701071Y-45747917D01*
X53595129Y-45498615D01*
X53454017Y-45267395D01*
X53364746Y-45160124D01*
X53280745Y-45059185D01*
X53280739Y-45059180D01*
X53079001Y-44878423D01*
X52853091Y-44728962D01*
X52853089Y-44728961D01*
X52607823Y-44613985D01*
X52607818Y-44613983D01*
X52607813Y-44613981D01*
X52348441Y-44535947D01*
X52348427Y-44535944D01*
X52232790Y-44518926D01*
X52080438Y-44496505D01*
X51877368Y-44496505D01*
X51877363Y-44496505D01*
X51674843Y-44511328D01*
X51674830Y-44511330D01*
X51410452Y-44570222D01*
X51410445Y-44570225D01*
X51157438Y-44666992D01*
X50921225Y-44799562D01*
X50706821Y-44965117D01*
X50518821Y-45160114D01*
X50518815Y-45160121D01*
X50361201Y-45380424D01*
X50361198Y-45380429D01*
X50237349Y-45621314D01*
X50237342Y-45621332D01*
X50149883Y-45877690D01*
X50149880Y-45877704D01*
X50100680Y-46144073D01*
X50100679Y-46144080D01*
X50090786Y-46414768D01*
X39926194Y-46414768D01*
X39706769Y-46283250D01*
X39706770Y-46283250D01*
X39706766Y-46283248D01*
X39332965Y-46106453D01*
X39332945Y-46106445D01*
X38943646Y-45967152D01*
X38943640Y-45967150D01*
X38943636Y-45967149D01*
X38744653Y-45917306D01*
X38542534Y-45866678D01*
X38542529Y-45866677D01*
X38542528Y-45866677D01*
X38466715Y-45855431D01*
X38133513Y-45806005D01*
X38133508Y-45806004D01*
X38133503Y-45806004D01*
X37720500Y-45785714D01*
X37307497Y-45806004D01*
X37307492Y-45806004D01*
X37307486Y-45806005D01*
X36898465Y-45866678D01*
X36595677Y-45942522D01*
X36497364Y-45967149D01*
X36497361Y-45967149D01*
X36497353Y-45967152D01*
X36108054Y-46106445D01*
X36108034Y-46106453D01*
X35734230Y-46283250D01*
X35379565Y-46495827D01*
X35047430Y-46742155D01*
X34741052Y-47019841D01*
X34463366Y-47326219D01*
X34217038Y-47658354D01*
X34004461Y-48013019D01*
X33827664Y-48386823D01*
X33827656Y-48386843D01*
X33688363Y-48776142D01*
X33587889Y-49177254D01*
X33527216Y-49586275D01*
X33527215Y-49586281D01*
X33527215Y-49586286D01*
X33506925Y-49999289D01*
X26554803Y-49999289D01*
X26546316Y-30168965D01*
X30832793Y-30168965D01*
X30862389Y-30463158D01*
X30862390Y-30463161D01*
X30930934Y-30750784D01*
X30930936Y-30750793D01*
X31037203Y-31026708D01*
X31037207Y-31026717D01*
X31179306Y-31286015D01*
X31354699Y-31524060D01*
X31354706Y-31524067D01*
X31560255Y-31736604D01*
X31560262Y-31736610D01*
X31792304Y-31919851D01*
X31792308Y-31919854D01*
X32046715Y-32070540D01*
X32318936Y-32185971D01*
X32604113Y-32264089D01*
X32897158Y-32303500D01*
X32897163Y-32303500D01*
X35118849Y-32303500D01*
X35259593Y-32294078D01*
X35340023Y-32288694D01*
X35629781Y-32229798D01*
X35909104Y-32132806D01*
X36173007Y-31999450D01*
X36416781Y-31832109D01*
X36636075Y-31633769D01*
X36826977Y-31407970D01*
X36986079Y-31158740D01*
X37110542Y-30890529D01*
X37198146Y-30608121D01*
X37247327Y-30316556D01*
X37257207Y-30021038D01*
X37227610Y-29726839D01*
X37159065Y-29439211D01*
X37052794Y-29163285D01*
X36910694Y-28903985D01*
X36735301Y-28665940D01*
X36529744Y-28453395D01*
X36529737Y-28453389D01*
X36297695Y-28270148D01*
X36163301Y-28190546D01*
X36043285Y-28119460D01*
X35771064Y-28004029D01*
X35771060Y-28004028D01*
X35771058Y-28004027D01*
X35771056Y-28004026D01*
X35485889Y-27925911D01*
X35402159Y-27914650D01*
X35192842Y-27886500D01*
X32971158Y-27886500D01*
X32971151Y-27886500D01*
X32749980Y-27901305D01*
X32749970Y-27901307D01*
X32460216Y-27960202D01*
X32180897Y-28057193D01*
X32180892Y-28057195D01*
X31916998Y-28190546D01*
X31673217Y-28357891D01*
X31453926Y-28556229D01*
X31263020Y-28782033D01*
X31103920Y-29031260D01*
X31103919Y-29031262D01*
X31042652Y-29163291D01*
X30979458Y-29299471D01*
X30946877Y-29404500D01*
X30891854Y-29581876D01*
X30842673Y-29873444D01*
X30832793Y-30168965D01*
X26546316Y-30168965D01*
X26545500Y-28263224D01*
X26545500Y-27219500D01*
X26565185Y-27152461D01*
X26617989Y-27106706D01*
X26669500Y-27095500D01*
X77220500Y-27095500D01*
X77287539Y-27115185D01*
G37*
%TD.AperFunction*%
D14*
%TO.C,REF\u002A\u002A*%
X26545000Y-27095000D02*
X77345000Y-27095000D01*
X77345000Y-27095000D02*
X77345000Y-155595000D01*
X77345000Y-155595000D02*
X26545000Y-155595000D01*
X26545000Y-155595000D02*
X26545000Y-27095000D01*
X50685000Y-60588000D02*
X53893000Y-60588000D01*
X53893000Y-60588000D02*
X53893000Y-73390000D01*
X53893000Y-73390000D02*
X50685000Y-73390000D01*
X50685000Y-73390000D02*
X50685000Y-60588000D01*
%TD*%
M02*
